<svg width="560" height="79.99999999999999" xmlns="http://www.w3.org/2000/svg" fill="none">
 <g>
  <title>Layer 1</title>
  <path stroke="null" fill="#000" d="m327.24106,77.52601s-1.57574,-2.63395 -1.57574,-4.28017s0.42975,-2.96319 1.43249,-4.11555s2.29199,-1.64622 3.72448,-1.64622s2.57848,0.49387 3.58123,1.64622a4.87047,5.59714 0 0 1 0.85949,7.07874a5.30022,6.09101 0 0 1 -4.29747,2.96319l-3.72448,-1.64622z" id="svg_2"/>
  <path fill="#000" opacity="NaN" d="m0.41935,0.7869c0,0 0.32258,78.70968 0.22581,78.54839c0.09677,0.16129 12.99999,0.48387 12.99999,0.48387c0,0 -0.32258,-79.35484 -0.41935,-79.51613c0.09677,1.45161 -12.80646,0.48387 -12.80646,0.48387l0.00001,0z" id="svg_3" stroke="null"/>
  <path fill="#000" opacity="NaN" d="m17.15444,0.37634c0,0 63.87097,78.70968 63.87097,78.70968c0,0 -16.12903,0 -16.2258,-0.16129c0.09677,0.16129 -63.12904,-78.54839 -63.22581,-78.70968c0.09677,0.16129 15.58064,0.16129 15.58064,0.16129z" id="svg_4"/>
  <path fill="#000" opacity="NaN" d="m93.14663,0.7869c0,0 0.32258,78.70968 0.22581,78.54839c0.09677,0.16129 12.99999,0.48387 12.99999,0.48387c0,0 -0.32258,-79.35484 -0.41934,-79.51613c0.09676,1.45161 -12.80646,0.48387 -12.80646,0.48387z" id="svg_6" stroke="null"/>
  <path fill="#000" opacity="NaN" d="m117.77934,0.48387c0,0 0.32258,78.70968 0.22581,78.54839c0.09677,0.16129 12.99999,0.48387 12.99999,0.48387c0,0 -0.32258,-79.35484 -0.41934,-79.51613c0.09676,1.45161 -12.80646,0.48387 -12.80646,0.48387z" id="svg_7" stroke="null"/>
  <path fill="#000" opacity="NaN" d="m163.41094,1.14997c0,0 63.87097,78.70968 63.87097,78.70968c0,0 -16.12903,0 -16.2258,-0.16129c0.09677,0.16129 -63.12904,-78.54839 -63.22581,-78.70968c0.09677,0.16129 15.58064,0.16129 15.58064,0.16129z" id="svg_8"/>
  <path fill="#000" opacity="NaN" d="m141.35499,0.27711c0,0 0.32258,78.70968 0.22581,78.54839c0.09677,0.16129 12.99999,0.48387 12.99999,0.48387c0,0 -0.32258,-79.35484 -0.41934,-79.51613c0.09676,1.45161 -12.80646,0.48387 -12.80646,0.48387z" id="svg_9" stroke="null"/>
  <path fill="#000" opacity="NaN" d="m233.1821,0.16124c0,0 0.32258,78.70968 0.22581,78.54839c0.09677,0.16129 12.99999,0.48387 12.99999,0.48387c0,0 -0.32258,-79.35484 -0.41934,-79.51613c0.09676,1.45161 -12.80646,0.48387 -12.80646,0.48387z" id="svg_10" stroke="null"/>
  <text style="cursor: move;" fill="#000000" x="278.31612" y="76.42425" id="svg_11" stroke-width="0" font-size="44" font-family="'Lexend'" text-anchor="start" xml:space="preserve" stroke="null" transform="matrix(1.09652 0 0 1 32.9715 0)" font-weight="bold">PROJECT</text>
  <path stroke="null" id="svg_1" d="m89.8394,0.71518c0,0 -5.87691,0 -6.09447,-0.12112c0.21756,0.12112 -36.56757,46.62584 -36.78513,46.50472c0.21756,0.12112 7.61812,10.05182 7.40056,9.9307c0.21756,0.12112 47.66821,-55.82988 47.45065,-55.951c0.21756,0.12112 -11.9716,-0.3633 -11.9716,-0.3633z" opacity="NaN" fill="#000"/>
  <path id="svg_5" d="m41.48989,55.05435l-20.19792,23.86136l14.0594,0l13.0693,-15.24752l-6.93079,-8.61385z" opacity="NaN" stroke="null" fill="#000"/>
  <path fill="#000" opacity="NaN" d="m253.70823,0.58422c0,0 63.87097,78.70968 63.87097,78.70968c0,0 -16.12903,0 -16.2258,-0.16129c0.09677,0.16129 -63.12904,-78.54839 -63.22581,-78.70968c0.09677,0.16129 15.58064,0.16129 15.58064,0.16129z" id="svg_12"/>
  <path fill="#000" opacity="NaN" d="m217.1903,-0.28625c0,0 0.32258,78.70968 0.22581,78.54839c0.09677,0.16129 12.99999,0.48387 12.99999,0.48387c0,0 -0.32258,-79.35484 -0.41934,-79.51613c0.09676,1.45161 -12.80646,0.48387 -12.80646,0.48387z" id="svg_13" stroke="null"/>
  <path fill="#000" opacity="NaN" d="m306.32252,-0.40451c0,0 0.32258,78.70968 0.22581,78.54839c0.09677,0.16129 12.99999,0.48387 12.99999,0.48387c0,0 -0.32258,-79.35484 -0.41934,-79.51613c0.09676,1.45161 -12.80646,0.48387 -12.80646,0.48387z" id="svg_14" stroke="null"/>
 </g>

</svg>